<?xml version="1.0" encoding="utf-8"?>
<!-- Generator: Adobe Illustrator 24.1.2, SVG Export Plug-In . SVG Version: 6.00 Build 0)  -->
<svg version="1.1" xmlns="http://www.w3.org/2000/svg" xmlns:xlink="http://www.w3.org/1999/xlink" x="0px" y="0px"
	 viewBox="0 0 1296 1728" style="enable-background:new 0 0 1296 1728;" xml:space="preserve">
<style type="text/css">
	.st0{fill:#0099DD;}
	.st1{fill:#FFFFFF;}
</style>
<g id="Camada_1">
	<rect x="265.5" y="216.8" class="st0" width="800" height="1079"/>
	<g>
		<path class="st0" d="M1037.3,199.9H292.7c-15.3,0-27.7-12.4-27.7-27.7v-27.4c0-15.3,12.4-27.7,27.7-27.7h744.7
			c15.3,0,27.7,12.4,27.7,27.7v27.4C1065,187.5,1052.6,199.9,1037.3,199.9z"/>
		<rect x="265" y="146" class="st0" width="800" height="53.8"/>
	</g>
	<g>
		<path class="st0" d="M293.1,1318.7h744.7c15.3,0,27.7,12.4,27.7,27.7v129.3c0,15.3-12.4,27.7-27.7,27.7H293.1
			c-15.3,0-27.7-12.4-27.7-27.7v-129.3C265.5,1331.1,277.8,1318.7,293.1,1318.7z"/>
		
			<rect x="265.5" y="1318.7" transform="matrix(-1 -1.224647e-16 1.224647e-16 -1 1330.9192 2757.5781)" class="st0" width="800" height="120.2"/>
	</g>
	<g>
		<g>
			<path class="st1" d="M458.2,1354.1H480v115.7h-21.8V1354.1z M469.2,1448.8h27.8c7.2,0,12.7-1.7,16.6-5.2
				c3.9-3.4,5.9-8.3,5.9-14.6v-34.1c0-6.3-2-11.2-5.9-14.6c-3.9-3.4-9.5-5.2-16.6-5.2h-27.8v-21h27.3c9.7,0,17.9,1.6,24.7,4.9
				c6.8,3.2,12,8,15.6,14.2c3.6,6.2,5.3,13.7,5.3,22.4v32.8c0,8.3-1.7,15.6-5.1,21.8c-3.4,6.2-8.6,11-15.4,14.5
				c-6.8,3.5-15.2,5.2-25.2,5.2h-27.2V1448.8z"/>
			<path class="st1" d="M603.6,1354.1h21.8v115.7h-21.8V1354.1z M614.6,1448.8h27.8c7.2,0,12.7-1.7,16.6-5.2
				c3.9-3.4,5.9-8.3,5.9-14.6v-34.1c0-6.3-2-11.2-5.9-14.6c-3.9-3.4-9.5-5.2-16.6-5.2h-27.8v-21h27.3c9.7,0,17.9,1.6,24.7,4.9
				c6.8,3.2,12,8,15.6,14.2c3.6,6.2,5.3,13.7,5.3,22.4v32.8c0,8.3-1.7,15.6-5.1,21.8c-3.4,6.2-8.6,11-15.4,14.5
				c-6.8,3.5-15.2,5.2-25.2,5.2h-27.2V1448.8z"/>
			<path class="st1" d="M796.6,1354.1h17.5l22.1,77.2l14.9-77.2h22.4l-26.7,115.7h-20.5l-20.5-80.9l-21.5,80.9h-20.5l-26.7-115.7
				h22.4l14.9,77.2L796.6,1354.1z"/>
		</g>
	</g>
</g>
<g id="Camada_2">
	<g>
		<g id="Layer_1_1_">
			<path id="XMLID_2_" class="st1" d="M759,804.4c-6,5.1-13.8,7.8-22.2,7.1c-5.1-0.3-9.1-2.4-14.1-4.4l-103.1-70.8
				c-3-2.7-5.7-5.7-7.8-9.5l-26-51.2l-31.1,136.9l121.7,143.9c2.7,4.4,4.4,9.5,5.7,14.9l32.7,173.6c0,3.7,0.3,6.4,0.3,9.5
				c-2,25.7-24.6,44.6-50,42.5c-20.9-1.7-37.1-17.6-41.9-36.8l-31-162.8l-98.8-108.2l-23.3,105.5c-0.6,5.1-7.1,15.5-9.5,19.5
				l-94.7,159.8c-9.8,14.8-25.2,24-43.5,22.5c-25.6-1.4-44.9-23.6-42.8-49.2c0.6-7.1,3.7-14.9,6-19.9l88.4-148l73.5-326l-47.9,39.1
				l-25.2,116.3c-3.3,14.8-16.8,27-33,25.7c-16.8-1.3-29.7-16.2-28.7-33.3c0.3-1.4,0.3-2.7,0.6-4.1l30.6-135.5
				c1.7-6,5.1-11.1,9.5-14.9l137.9-111.9c13.5-9.5,30-15.5,48.2-14.1c23.6,2,43.2,16.5,54.6,34.4l69.5,137.2l94.4,65.1
				c8.1,6,13.2,16.2,12.2,27.3c-0.3,4.1-1.3,7.4-3,10.8 M886.7,1011.6c-42.4-69.4-84.8-138.7-127.1-208.1l6.5-9.5
				c0,0,92.2,143.1,131.1,207.3C893.7,1004.7,890.2,1008.2,886.7,1011.6z M549.2,505.9c37.8,3,70.8-25.2,73.8-63
				c3-37.8-25.2-70.8-63-73.8c-37.8-3-70.8,25.2-73.8,63C483.5,469.9,511.5,502.9,549.2,505.9z"/>
			<g id="Camada_2_2_">
			</g>
		</g>
		<g id="Camada_3_1_">
			<g>
				<g>
					<path class="st1" d="M783.2,1011.6l-32.2-25.8c-7.2-5.8-17.9-4.6-23.7,2.6c-5.8,7.2-4.6,17.9,2.6,23.7l32.8,26.3v71.5
						c0,0.4,0,0.8,0.1,1.2l-28.9,55.5c-4.3,8.3-1.1,18.4,7.2,22.8c2.5,1.3,5.2,1.9,7.8,1.9c6,0,12-3.3,15-9.1l29-55.8l32.5,56.4
						c3.1,5.4,8.8,8.4,14.7,8.4c2.8,0,5.7-0.8,8.4-2.3c8.1-4.6,10.9-15,6.3-23.1l-28.4-49.2h105v57.6c0,9.3,7.6,16.8,16.8,16.8
						s16.8-7.6,16.8-16.8v-63.2c0.1-0.4,0.1-0.8,0.1-1.2v-53.4l-78.7-45.1L783.2,1011.6L783.2,1011.6z"/>
					<path class="st1" d="M1009,977.3c-10.5-9.8-13.9-21.4-25.7-29.7c-2-1.4-4.1-2.9-6.3-4.1c-1.3-0.8-1.7-1.6-1.6-3
						c0.5-4.9,1-9.7,1.4-14.6c0.6-8.6-1.8-16.6-8.7-21.7c-2.8-2-16.6-8.7-22.7,14.1c-1.3,5-3.1,9.9-5.4,14.5
						c-8.7,16.7-19.7,31.9-30.2,47.5c-4.9,7.1-9.6,14.1-14.5,21.3l73.8,42.1c0,0,14.2-15.5,16.2-14.7c2.8,1.2,5.6,2.4,8.3,3.7
						c8.1,3.6,16.6,5.2,25.5,4.6c15.1-0.9,30.7-8.8,32.3-27C1052.7,993.5,1012.5,980.6,1009,977.3z"/>
				</g>
			</g>
		</g>
	</g>
	<g>
		<g>
			<path class="st0" d="M193.3,1565.4h6.1l15.9,51.1h-9.5l-9.4-34.2l-9.4,34.2h-9.5L193.3,1565.4z M186.2,1599.8h20.4v8.7h-20.4
				V1599.8z"/>
			<path class="st0" d="M242.6,1615.5c-2.1-1.1-3.7-2.6-4.8-4.6c-1.1-2-1.7-4.5-1.7-7.3v-10.4c0-2.9,0.6-5.3,1.7-7.4
				c1.1-2.1,2.7-3.6,4.8-4.7c2.1-1.1,4.6-1.6,7.5-1.6c2.5,0,4.6,0.4,6.4,1.1c1.8,0.7,3.2,1.8,4.2,3.3s1.7,3.4,2.1,5.7l-8.4,2.8
				c-0.3-1.5-0.8-2.6-1.5-3.4c-0.7-0.7-1.7-1.1-2.8-1.1c-1.5,0-2.6,0.5-3.5,1.4c-0.9,0.9-1.3,2.3-1.3,4.1v9.7c0,1.7,0.4,3,1.2,3.9
				c0.8,0.9,2,1.4,3.5,1.4c1.2,0,2.1-0.4,2.8-1.1c0.7-0.7,1.2-1.8,1.6-3.2l8.4,3c-0.4,2.2-1.1,4.1-2.1,5.6s-2.5,2.6-4.2,3.3
				s-3.9,1-6.4,1C247.2,1617.1,244.7,1616.6,242.6,1615.5z"/>
			<path class="st0" d="M269.9,1614.3c-1.7-1.8-2.5-4.5-2.5-8.1c0-3.7,1.1-6.6,3.2-8.5s5.2-2.9,9.4-2.9h5.9l0.5,7.1h-6.2
				c-1.4,0-2.5,0.4-3.3,1.1s-1.1,1.8-1.1,3.2c0,1.1,0.3,2,1,2.5c0.7,0.6,1.7,0.8,3.1,0.8c1.9,0,3.3-0.3,4.3-0.9
				c1-0.6,1.4-1.6,1.4-2.8l0.7,4.2c-0.1,1.5-0.5,2.8-1.4,3.9s-1.9,1.9-3.2,2.4s-2.8,0.8-4.4,0.8
				C274.1,1617.1,271.6,1616.2,269.9,1614.3z M285.7,1591.9c0-1.3-0.4-2.3-1.2-3c-0.8-0.7-2-1.1-3.5-1.1c-1.1,0-2.1,0.2-3,0.7
				c-0.9,0.5-1.6,1.2-2.1,2l-7.1-2.9c0.7-2.6,2.2-4.6,4.3-6c2.2-1.4,4.8-2.2,8.1-2.2c2.7,0,5.1,0.5,7,1.5c2,1,3.5,2.4,4.5,4.2
				c1,1.8,1.5,4,1.5,6.6v24.8h-8.5V1591.9z"/>
			<path class="st0" d="M302.4,1580.1h9.2v36.5h-9.2V1580.1z M320.4,1593.1c0-1.6-0.4-2.9-1.2-3.8s-1.9-1.3-3.4-1.3
				c-1.4,0-2.4,0.4-3.1,1.2c-0.7,0.8-1.1,1.9-1.1,3.4l-0.7-6.3c0.9-2.2,2.1-3.9,3.7-5.1c1.5-1.2,3.3-1.8,5.3-1.8
				c2.1,0,3.8,0.5,5.3,1.4c1.5,0.9,2.6,2.3,3.3,4.2c0.8,1.8,1.1,4,1.1,6.6v24.9h-9.2V1593.1z M338.3,1593.1c0-1.6-0.4-2.9-1.1-3.8
				c-0.8-0.9-1.8-1.3-3.3-1.3s-2.5,0.4-3.3,1.3c-0.8,0.9-1.1,2.1-1.1,3.7l-1.2-6.5c1-2.2,2.3-3.9,3.9-5.2c1.6-1.2,3.5-1.8,5.4-1.8
				c2.1,0,3.8,0.5,5.3,1.5c1.5,1,2.6,2.4,3.4,4.3s1.2,4.2,1.2,6.8v24.5h-9.2V1593.1z"/>
			<path class="st0" d="M355.2,1565.4h9.2v9.1h-9.2V1565.4z M355.2,1580.1h9.2v36.5h-9.2V1580.1z"/>
			<path class="st0" d="M372,1580.1h9.2v36.5H372V1580.1z M389.7,1592.6c0-1.5-0.4-2.6-1.1-3.4c-0.8-0.8-1.8-1.2-3.2-1.2
				c-1.3,0-2.4,0.4-3.1,1.2c-0.7,0.8-1.1,1.9-1.1,3.4l-0.7-6.2c0.9-2.3,2.1-4,3.6-5.2s3.2-1.8,5.2-1.8c3,0,5.4,1.1,7.1,3.2
				c1.7,2.1,2.5,5.1,2.5,8.9v25h-9.1V1592.6z"/>
			<path class="st0" d="M407.1,1565.4h9.1v51.1h-9.1V1565.4z M424.8,1592.7c0-1.5-0.4-2.6-1.1-3.4c-0.8-0.8-1.8-1.2-3.2-1.2
				c-1.4,0-2.4,0.4-3.1,1.2c-0.7,0.8-1.1,1.9-1.1,3.4l-0.6-6.3c0.9-2.3,2-4,3.5-5.2s3.2-1.8,5.2-1.8c3,0,5.4,1,7.1,3.1
				c1.7,2.1,2.5,5.1,2.5,8.9v25h-9.1V1592.7z"/>
			<path class="st0" d="M443.6,1614.3c-1.7-1.8-2.5-4.5-2.5-8.1c0-3.7,1.1-6.6,3.2-8.5s5.2-2.9,9.4-2.9h5.9l0.5,7.1h-6.2
				c-1.4,0-2.5,0.4-3.3,1.1s-1.1,1.8-1.1,3.2c0,1.1,0.3,2,1,2.5c0.7,0.6,1.7,0.8,3.1,0.8c1.9,0,3.3-0.3,4.3-0.9
				c1-0.6,1.4-1.6,1.4-2.8l0.7,4.2c-0.1,1.5-0.5,2.8-1.4,3.9s-1.9,1.9-3.2,2.4s-2.8,0.8-4.4,0.8
				C447.7,1617.1,445.2,1616.2,443.6,1614.3z M459.3,1591.9c0-1.3-0.4-2.3-1.2-3c-0.8-0.7-2-1.1-3.5-1.1c-1.1,0-2.1,0.2-3,0.7
				c-0.9,0.5-1.6,1.2-2.1,2l-7.1-2.9c0.7-2.6,2.2-4.6,4.3-6c2.2-1.4,4.8-2.2,8.1-2.2c2.7,0,5.1,0.5,7,1.5c2,1,3.5,2.4,4.5,4.2
				c1,1.8,1.5,4,1.5,6.6v24.8h-8.5V1591.9z"/>
			<path class="st0" d="M479.6,1615.6c-1.4-1-2.5-2.5-3.3-4.4c-0.8-1.9-1.1-4.2-1.1-6.9v-11.9c0-2.7,0.4-5.1,1.1-7
				c0.8-1.9,1.9-3.4,3.3-4.4c1.5-1,3.2-1.5,5.2-1.5c1.8,0,3.4,0.6,4.9,1.7c1.5,1.2,2.7,2.8,3.6,4.9l-0.7,6.3c0-1-0.2-1.8-0.5-2.5
				c-0.3-0.7-0.8-1.2-1.4-1.6c-0.6-0.4-1.3-0.5-2.2-0.5c-1.3,0-2.4,0.5-3.1,1.4c-0.8,0.9-1.1,2.2-1.1,3.9v10.5
				c0,1.6,0.4,2.8,1.1,3.7c0.8,0.9,1.8,1.3,3.1,1.3c0.9,0,1.6-0.2,2.2-0.5c0.6-0.4,1.1-0.9,1.4-1.5c0.3-0.7,0.5-1.5,0.5-2.4l0.5,6.6
				c-0.7,2-1.8,3.5-3.2,4.6s-3.1,1.7-5,1.7C482.8,1617.1,481,1616.6,479.6,1615.6z M492.5,1565.4h9.1v51.1h-9.1V1565.4z"/>
			<path class="st0" d="M511.3,1614.3c-1.7-1.8-2.5-4.5-2.5-8.1c0-3.7,1.1-6.6,3.2-8.5s5.2-2.9,9.4-2.9h5.9l0.5,7.1h-6.2
				c-1.4,0-2.5,0.4-3.3,1.1s-1.1,1.8-1.1,3.2c0,1.1,0.3,2,1,2.5c0.7,0.6,1.7,0.8,3.1,0.8c1.9,0,3.3-0.3,4.3-0.9
				c1-0.6,1.4-1.6,1.4-2.8l0.7,4.2c-0.1,1.5-0.5,2.8-1.4,3.9s-1.9,1.9-3.2,2.4s-2.8,0.8-4.4,0.8
				C515.4,1617.1,512.9,1616.2,511.3,1614.3z M527,1591.9c0-1.3-0.4-2.3-1.2-3c-0.8-0.7-2-1.1-3.5-1.1c-1.1,0-2.1,0.2-3,0.7
				c-0.9,0.5-1.6,1.2-2.1,2l-7.1-2.9c0.7-2.6,2.2-4.6,4.3-6c2.2-1.4,4.8-2.2,8.1-2.2c2.7,0,5.1,0.5,7,1.5c2,1,3.5,2.4,4.5,4.2
				c1,1.8,1.5,4,1.5,6.6v24.8H527V1591.9z"/>
			<path class="st0" d="M564.2,1615.6c-1.4-1-2.5-2.5-3.3-4.4c-0.8-1.9-1.1-4.2-1.1-6.9v-11.9c0-2.7,0.4-5.1,1.1-7
				c0.8-1.9,1.9-3.4,3.3-4.4c1.5-1,3.2-1.5,5.2-1.5c1.8,0,3.4,0.6,4.9,1.7c1.5,1.2,2.7,2.8,3.6,4.9l-0.7,6.3c0-1-0.2-1.8-0.5-2.5
				c-0.3-0.7-0.8-1.2-1.4-1.6c-0.6-0.4-1.3-0.5-2.2-0.5c-1.3,0-2.4,0.5-3.1,1.4c-0.8,0.9-1.1,2.2-1.1,3.9v10.5
				c0,1.6,0.4,2.8,1.1,3.7c0.8,0.9,1.8,1.3,3.1,1.3c0.9,0,1.6-0.2,2.2-0.5c0.6-0.4,1.1-0.9,1.4-1.5c0.3-0.7,0.5-1.5,0.5-2.4l0.5,6.6
				c-0.7,2-1.8,3.5-3.2,4.6s-3.1,1.7-5,1.7C567.4,1617.1,565.6,1616.6,564.2,1615.6z M577.1,1565.4h9.1v51.1h-9.1V1565.4z"/>
			<path class="st0" d="M593.9,1565.4h9.2v9.1h-9.2V1565.4z M593.9,1580.1h9.2v36.5h-9.2V1580.1z"/>
			<path class="st0" d="M612.1,1614.3c-1.7-1.8-2.5-4.5-2.5-8.1c0-3.7,1.1-6.6,3.2-8.5s5.2-2.9,9.4-2.9h5.9l0.5,7.1h-6.2
				c-1.4,0-2.5,0.4-3.3,1.1s-1.1,1.8-1.1,3.2c0,1.1,0.3,2,1,2.5c0.7,0.6,1.7,0.8,3.1,0.8c1.9,0,3.3-0.3,4.3-0.9
				c1-0.6,1.4-1.6,1.4-2.8l0.7,4.2c-0.1,1.5-0.5,2.8-1.4,3.9s-1.9,1.9-3.2,2.4s-2.8,0.8-4.4,0.8
				C616.2,1617.1,613.7,1616.2,612.1,1614.3z M627.8,1591.9c0-1.3-0.4-2.3-1.2-3c-0.8-0.7-2-1.1-3.5-1.1c-1.1,0-2.1,0.2-3,0.7
				c-0.9,0.5-1.6,1.2-2.1,2l-7.1-2.9c0.7-2.6,2.2-4.6,4.3-6c2.2-1.4,4.8-2.2,8.1-2.2c2.7,0,5.1,0.5,7,1.5c2,1,3.5,2.4,4.5,4.2
				c1,1.8,1.5,4,1.5,6.6v24.8h-8.5V1591.9z M618.1,1570.3l9.4-12.5l6.6,5.4l-10,11.8L618.1,1570.3z"/>
			<path class="st0" d="M644.5,1580.1h9.5v36.5h-9.5V1580.1z M662.1,1588.9c-0.5-0.1-1.1-0.2-1.8-0.2c-2,0-3.5,0.6-4.7,1.9
				c-1.1,1.2-1.7,3-1.7,5.2l-0.7-9.3c1-2.2,2.4-3.9,4-5.1c1.6-1.2,3.4-1.8,5.4-1.8c0.8,0,1.4,0.1,2.1,0.4c0.6,0.2,1.2,0.6,1.6,1.1
				l-2.8,8.5C663.1,1589.2,662.7,1589,662.1,1588.9z"/>
			<path class="st0" d="M670.5,1565.4h9.2v9.1h-9.2V1565.4z M670.5,1580.1h9.2v36.5h-9.2V1580.1z"/>
			<path class="st0" d="M688.7,1614.3c-1.7-1.8-2.5-4.5-2.5-8.1c0-3.7,1.1-6.6,3.2-8.5s5.2-2.9,9.4-2.9h5.9l0.5,7.1h-6.2
				c-1.4,0-2.5,0.4-3.3,1.1s-1.1,1.8-1.1,3.2c0,1.1,0.3,2,1,2.5s1.7,0.8,3.1,0.8c1.9,0,3.3-0.3,4.3-0.9s1.4-1.6,1.4-2.8l0.7,4.2
				c-0.1,1.5-0.5,2.8-1.4,3.9s-1.9,1.9-3.2,2.4s-2.8,0.8-4.4,0.8C692.8,1617.1,690.3,1616.2,688.7,1614.3z M704.4,1591.9
				c0-1.3-0.4-2.3-1.2-3s-2-1.1-3.5-1.1c-1.1,0-2.1,0.2-3,0.7s-1.6,1.2-2.1,2l-7.1-2.9c0.7-2.6,2.2-4.6,4.3-6s4.8-2.2,8.1-2.2
				c2.7,0,5.1,0.5,7,1.5s3.5,2.4,4.5,4.2s1.5,4,1.5,6.6v24.8h-8.5V1591.9z"/>
			<path class="st0" d="M741.6,1615.6c-1.4-1-2.5-2.5-3.3-4.4s-1.1-4.2-1.1-6.9v-11.9c0-2.7,0.4-5.1,1.1-7s1.9-3.4,3.3-4.4
				s3.2-1.5,5.2-1.5c1.8,0,3.4,0.6,4.9,1.7s2.7,2.8,3.6,4.9l-0.7,6.3c0-1-0.2-1.8-0.5-2.5s-0.8-1.2-1.4-1.6s-1.3-0.5-2.2-0.5
				c-1.3,0-2.4,0.5-3.1,1.4s-1.1,2.2-1.1,3.9v10.5c0,1.6,0.4,2.8,1.1,3.7s1.8,1.3,3.1,1.3c0.9,0,1.6-0.2,2.2-0.5s1.1-0.9,1.4-1.5
				s0.5-1.5,0.5-2.4l0.5,6.6c-0.7,2-1.8,3.5-3.2,4.6s-3.1,1.7-5,1.7C744.8,1617.1,743,1616.6,741.6,1615.6z M754.5,1565.4h9.1v51.1
				h-9.1V1565.4z"/>
			<path class="st0" d="M777.5,1615.4c-2.1-1.1-3.7-2.7-4.8-4.7s-1.7-4.5-1.7-7.4v-9.4c0-3,0.5-5.6,1.6-7.8s2.6-3.8,4.7-4.9
				s4.5-1.7,7.4-1.7c2.8,0,5.2,0.6,7.2,1.9s3.5,3.1,4.6,5.4s1.6,5.3,1.6,8.6v6.4h-20.3v-6.5h11.7v-2.6c0-1.5-0.4-2.8-1.3-3.7
				s-2-1.4-3.4-1.4c-1.6,0-2.8,0.5-3.7,1.5s-1.3,2.5-1.3,4.3v9.9c0,1.8,0.5,3.1,1.4,4.1s2.2,1.4,3.9,1.4c1.3,0,2.3-0.3,3.1-0.9
				s1.4-1.6,1.8-2.8l7.7,2.9c-0.7,3-2.1,5.2-4.2,6.7s-4.9,2.2-8.2,2.2C782.1,1617.1,779.6,1616.5,777.5,1615.4z"/>
			<path class="st0" d="M826.9,1616c-1.9-0.7-3.6-1.7-4.9-3s-2.2-2.9-2.7-4.8l7.4-3.8c0.8,1.4,1.8,2.4,3,3.2s2.7,1.1,4.3,1.1
				c1.5,0,2.6-0.3,3.4-0.8s1.2-1.3,1.2-2.2c0-0.8-0.3-1.5-0.8-2s-1.1-0.8-1.9-1.1s-1.8-0.5-3.2-0.8c-0.3-0.1-0.6-0.1-0.9-0.2
				s-0.7-0.2-1-0.2c-0.1,0-0.1-0.1-0.2-0.1s-0.2,0-0.3-0.1c-2-0.5-3.7-1.1-5.1-1.7s-2.5-1.7-3.4-3.1s-1.4-3.3-1.4-5.7
				c0-2.3,0.5-4.3,1.5-6s2.5-3,4.4-3.9s4.2-1.4,6.8-1.4c2.3,0,4.3,0.3,6,1s3.3,1.6,4.5,2.9s2.1,2.8,2.6,4.6l-7.4,3.7
				c-0.6-1.2-1.4-2.1-2.4-2.8s-2.1-1-3.4-1c-1.4,0-2.4,0.2-3.2,0.7s-1.1,1.2-1.1,2c0,0.8,0.3,1.4,0.8,1.8s1.2,0.8,2,1.1
				s2,0.5,3.4,0.8c0.1,0,0.2,0,0.3,0.1s0.2,0,0.3,0c0,0,0.1,0.1,0.1,0.1s0.1,0,0.1,0c2.3,0.5,4.2,1,5.7,1.6s2.7,1.6,3.8,3.1
				s1.5,3.6,1.5,6.3c0,2.4-0.5,4.4-1.6,6.1s-2.6,3.1-4.7,4s-4.5,1.4-7.2,1.4C831,1617.1,828.8,1616.7,826.9,1616z"/>
			<path class="st0" d="M859.5,1615.4c-2.1-1.1-3.7-2.7-4.8-4.7s-1.7-4.5-1.7-7.4v-9.4c0-3,0.5-5.6,1.6-7.8s2.6-3.8,4.7-4.9
				s4.5-1.7,7.4-1.7c2.8,0,5.2,0.6,7.2,1.9s3.5,3.1,4.6,5.4s1.6,5.3,1.6,8.6v6.4h-20.3v-6.5h11.7v-2.6c0-1.5-0.4-2.8-1.3-3.7
				s-2-1.4-3.4-1.4c-1.6,0-2.8,0.5-3.7,1.5s-1.3,2.5-1.3,4.3v9.9c0,1.8,0.5,3.1,1.4,4.1s2.2,1.4,3.9,1.4c1.3,0,2.3-0.3,3.1-0.9
				s1.4-1.6,1.8-2.8l7.7,2.9c-0.7,3-2.1,5.2-4.2,6.7s-4.9,2.2-8.2,2.2C864.1,1617.1,861.6,1616.5,859.5,1615.4z"/>
			<path class="st0" d="M896.4,1604.8c0,1.3,0.4,2.4,1.1,3.1s1.7,1.1,3.1,1c1.3,0,2.3-0.3,3-1.1s1-1.8,1-3.2l0.5,5.7
				c-0.6,2.1-1.6,3.7-2.9,4.9s-3,1.8-4.9,1.8c-3.3,0-5.7-1-7.4-3.1s-2.5-5.1-2.5-9v-24.9h9.1V1604.8z M904.6,1580.1h9.1v36.5h-9.1
				V1580.1z"/>
			<path class="st0" d="M944.4,1615.5c-2.1-1.1-3.7-2.6-4.8-4.6s-1.7-4.5-1.7-7.3v-10.4c0-2.9,0.6-5.3,1.7-7.4s2.7-3.6,4.8-4.7
				s4.6-1.6,7.5-1.6c2.5,0,4.6,0.4,6.4,1.1s3.2,1.8,4.2,3.3s1.7,3.4,2.1,5.7l-8.4,2.8c-0.3-1.5-0.8-2.6-1.5-3.4s-1.7-1.1-2.8-1.1
				c-1.5,0-2.6,0.5-3.5,1.4s-1.3,2.3-1.3,4.1v9.7c0,1.7,0.4,3,1.2,3.9s2,1.4,3.5,1.4c1.2,0,2.1-0.4,2.8-1.1s1.2-1.8,1.6-3.2l8.4,3
				c-0.4,2.2-1.1,4.1-2.1,5.6s-2.5,2.6-4.2,3.3s-3.9,1-6.4,1C949,1617.1,946.5,1616.6,944.4,1615.5z"/>
			<path class="st0" d="M971.7,1614.3c-1.7-1.8-2.5-4.5-2.5-8.1c0-3.7,1.1-6.6,3.2-8.5s5.2-2.9,9.4-2.9h5.9l0.5,7.1H982
				c-1.4,0-2.5,0.4-3.3,1.1s-1.1,1.8-1.1,3.2c0,1.1,0.3,2,1,2.5s1.7,0.8,3.1,0.8c1.9,0,3.3-0.3,4.3-0.9s1.4-1.6,1.4-2.8l0.7,4.2
				c-0.1,1.5-0.5,2.8-1.4,3.9s-1.9,1.9-3.2,2.4s-2.8,0.8-4.4,0.8C975.9,1617.1,973.4,1616.2,971.7,1614.3z M987.4,1591.9
				c0-1.3-0.4-2.3-1.2-3s-2-1.1-3.5-1.1c-1.1,0-2.1,0.2-3,0.7s-1.6,1.2-2.1,2l-7.1-2.9c0.7-2.6,2.2-4.6,4.3-6s4.8-2.2,8.1-2.2
				c2.7,0,5.1,0.5,7,1.5s3.5,2.4,4.5,4.2s1.5,4,1.5,6.6v24.8h-8.5V1591.9z"/>
			<path class="st0" d="M1009.7,1615.5c-2.1-1.1-3.7-2.6-4.8-4.6s-1.7-4.5-1.7-7.3v-10.4c0-2.9,0.6-5.3,1.7-7.4s2.7-3.6,4.8-4.7
				s4.6-1.6,7.5-1.6c2.5,0,4.6,0.4,6.4,1.1s3.2,1.8,4.2,3.3s1.7,3.4,2.1,5.7l-8.4,2.8c-0.3-1.5-0.8-2.6-1.5-3.4s-1.7-1.1-2.8-1.1
				c-1.5,0-2.6,0.5-3.5,1.4s-1.3,2.3-1.3,4.1v9.7c0,1.7,0.4,3,1.2,3.9s2,1.4,3.5,1.4c1.2,0,2.1-0.4,2.8-1.1s1.2-1.8,1.6-3.2l8.4,3
				c-0.4,2.2-1.1,4.1-2.1,5.6s-2.5,2.6-4.2,3.3s-3.9,1-6.4,1C1014.3,1617.1,1011.8,1616.6,1009.7,1615.5z"/>
			<path class="st0" d="M1035.7,1565.4h9.1v51.1h-9.1V1565.4z M1053.4,1592.7c0-1.5-0.4-2.6-1.1-3.4s-1.8-1.2-3.2-1.2
				c-1.4,0-2.4,0.4-3.1,1.2s-1.1,1.9-1.1,3.4l-0.6-6.3c0.9-2.3,2-4,3.5-5.2s3.2-1.8,5.2-1.8c3,0,5.4,1,7.1,3.1s2.5,5.1,2.5,8.9v25
				h-9.1V1592.7z"/>
			<path class="st0" d="M1076,1615.6c-2-1-3.5-2.5-4.6-4.4s-1.6-4.3-1.6-7v-12c0-2.7,0.5-5,1.6-6.9s2.6-3.4,4.6-4.4s4.4-1.5,7.2-1.5
				c2.8,0,5.2,0.5,7.2,1.5s3.5,2.4,4.6,4.4s1.6,4.2,1.6,6.9v12.1c0,2.7-0.5,5-1.6,6.9s-2.6,3.4-4.6,4.4s-4.4,1.5-7.2,1.5
				C1080.4,1617.1,1078,1616.6,1076,1615.6z M1086.3,1607.3c0.7-0.8,1.1-1.9,1.1-3.4v-11.4c0-1.5-0.4-2.6-1.1-3.4s-1.8-1.2-3.1-1.2
				s-2.4,0.4-3.1,1.2s-1.1,1.9-1.1,3.3v11.4c0,1.5,0.4,2.6,1.1,3.4s1.8,1.2,3.1,1.2C1084.5,1608.5,1085.6,1608.1,1086.3,1607.3z"/>
			<path class="st0" d="M1104.1,1580.1h9.5v36.5h-9.5V1580.1z M1121.7,1588.9c-0.5-0.1-1.1-0.2-1.8-0.2c-2,0-3.5,0.6-4.7,1.9
				s-1.7,3-1.7,5.2l-0.7-9.3c1-2.2,2.4-3.9,4-5.1s3.4-1.8,5.4-1.8c0.8,0,1.4,0.1,2.1,0.4s1.2,0.6,1.6,1.1l-2.8,8.5
				C1122.7,1589.2,1122.2,1589,1121.7,1588.9z"/>
			<path class="st0" d="M1130.7,1580.1h9.5v36.5h-9.5V1580.1z M1148.3,1588.9c-0.5-0.1-1.1-0.2-1.8-0.2c-2,0-3.5,0.6-4.7,1.9
				s-1.7,3-1.7,5.2l-0.7-9.3c1-2.2,2.4-3.9,4-5.1s3.4-1.8,5.4-1.8c0.8,0,1.4,0.1,2.1,0.4s1.2,0.6,1.6,1.1l-2.8,8.5
				C1149.3,1589.2,1148.8,1589,1148.3,1588.9z"/>
			<path class="st0" d="M1162.5,1615.6c-2-1-3.5-2.5-4.6-4.4s-1.6-4.3-1.6-7v-12c0-2.7,0.5-5,1.6-6.9s2.6-3.4,4.6-4.4
				s4.4-1.5,7.2-1.5c2.8,0,5.2,0.5,7.2,1.5s3.5,2.4,4.6,4.4s1.6,4.2,1.6,6.9v12.1c0,2.7-0.5,5-1.6,6.9s-2.6,3.4-4.6,4.4
				s-4.4,1.5-7.2,1.5C1166.9,1617.1,1164.5,1616.6,1162.5,1615.6z M1172.8,1607.3c0.7-0.8,1.1-1.9,1.1-3.4v-11.4
				c0-1.5-0.4-2.6-1.1-3.4s-1.8-1.2-3.1-1.2s-2.4,0.4-3.1,1.2s-1.1,1.9-1.1,3.3v11.4c0,1.5,0.4,2.6,1.1,3.4s1.8,1.2,3.1,1.2
				C1171,1608.5,1172.1,1608.1,1172.8,1607.3z"/>
		</g>
	</g>
</g>
</svg>
