<?xml version="1.0" encoding="utf-8"?>
<!-- Generator: Adobe Illustrator 24.1.2, SVG Export Plug-In . SVG Version: 6.00 Build 0)  -->
<svg version="1.1" xmlns="http://www.w3.org/2000/svg" xmlns:xlink="http://www.w3.org/1999/xlink" x="0px" y="0px"
	 viewBox="0 0 800 800" style="enable-background:new 0 0 800 800;" xml:space="preserve">
<style type="text/css">
	.st0{fill:#FFFFFF;}
</style>
<g id="Layer_1">
	<path id="XMLID_1_" class="st0" d="M464.7,419.7c-5.6,4.7-12.8,7.2-20.6,6.6c-4.7-0.3-8.4-2.2-13.1-4.1l-95.6-65.6
		c-2.8-2.5-5.3-5.3-7.2-8.8l-24.1-47.5l-28.8,126.9l112.8,133.4c2.5,4.1,4.1,8.8,5.3,13.8l30.3,160.9c0,3.4,0.3,5.9,0.3,8.8
		c-1.9,23.8-22.8,41.3-46.3,39.4c-19.4-1.6-34.4-16.3-38.8-34.1l-28.7-150.9l-91.6-100.3l-21.6,97.8c-0.6,4.7-6.6,14.4-8.8,18.1
		l-87.8,148.1c-9.1,13.7-23.4,22.2-40.3,20.9c-23.7-1.3-41.6-21.9-39.7-45.6c0.6-6.6,3.4-13.8,5.6-18.4l81.9-137.2l68.1-302.2
		l-44.4,36.2l-23.4,107.8c-3.1,13.7-15.6,25-30.6,23.8c-15.6-1.2-27.5-15-26.6-30.9c0.3-1.3,0.3-2.5,0.6-3.8L80,287.2
		c1.6-5.6,4.7-10.3,8.8-13.8l127.8-103.7c12.5-8.8,27.8-14.4,44.7-13.1c21.9,1.9,40,15.3,50.6,31.9l64.4,127.2l87.5,60.3
		c7.5,5.6,12.2,15,11.3,25.3c-0.3,3.8-1.2,6.9-2.8,10 M583.1,611.8c-39.3-64.3-78.6-128.6-117.8-192.9l6-8.8
		c0,0,85.5,132.6,121.5,192.1C589.6,605.4,586.3,608.6,583.1,611.8z M270.3,143.1c35,2.8,65.6-23.4,68.4-58.4s-23.4-65.6-58.4-68.4
		s-65.6,23.4-68.4,58.4C209.4,109.7,235.3,140.3,270.3,143.1z"/>
	<g id="Camada_2">
	</g>
</g>
<g id="Camada_3">
	<g>
		<g>
			<path class="st0" d="M487.2,611.8l-29.8-23.9c-6.7-5.4-16.6-4.3-22,2.4c-5.4,6.7-4.3,16.6,2.4,22l30.4,24.4V703
				c0,0.4,0,0.7,0.1,1.1l-26.8,51.4c-4,7.7-1,17.1,6.7,21.1c2.3,1.2,4.8,1.8,7.2,1.8c5.6,0,11.1-3.1,13.9-8.4l26.9-51.7l30.1,52.3
				c2.9,5,8.2,7.8,13.6,7.8c2.6,0,5.3-0.7,7.8-2.1c7.5-4.3,10.1-13.9,5.8-21.4l-26.3-45.6h97.3v53.4c0,8.6,7,15.6,15.6,15.6
				c8.6,0,15.6-7,15.6-15.6v-58.6c0.1-0.4,0.1-0.7,0.1-1.1v-49.5l-72.9-41.8L487.2,611.8L487.2,611.8z"/>
			<path class="st0" d="M696.5,580c-9.7-9.1-12.9-19.8-23.8-27.5c-1.9-1.3-3.8-2.7-5.8-3.8c-1.2-0.7-1.6-1.5-1.5-2.8
				c0.5-4.5,0.9-9,1.3-13.5c0.6-8-1.7-15.4-8.1-20.1c-2.6-1.9-15.4-8.1-21,13.1c-1.2,4.6-2.9,9.2-5,13.4c-8.1,15.5-18.3,29.6-28,44
				c-4.5,6.6-8.9,13.1-13.4,19.7l68.4,39c0,0,13.2-14.4,15-13.6c2.6,1.1,5.2,2.2,7.7,3.4c7.5,3.3,15.4,4.8,23.6,4.3
				c14-0.8,28.5-8.2,29.9-25C737,595,699.7,583,696.5,580z"/>
		</g>
	</g>
</g>
</svg>
